:SAMPLES-PER-SECOND 30
:FULLY-SPECIFIED
:DEGREES
222
root  39.9475 36.5338 -29.7554 -147.289 84.8557 171.846
RightUpLeg  -73.6368 -11.5535 12.4777
RightLeg  39.1007 -3.40719 -3.24686
RightFoot  -3.9088 0.401172 -6.56913
RightToes  0.00048216 0.542163 -0.142577
Spine  73.0509 -6.19319 7.72209
Spine1  -0.491043 1.12392 -9.5632
HEad  -41.0933 -7.09556 8.9333
LeftShoulder1  1.28712 -23.1839 4.1245
LeftArm  -87.1593 -59.5562 38.469
LeftForeArm  -7.7552 -6.01994 3.01053
LeftHand  -0.25398 0.0180481 5.50724
RightShoulder  1.76153 11.0198 4.23296
RightArm  -83.6193 58.0989 -33.846
RightForeArm  -23.1365 3.92274 0.548616
RightHand  -0.85593 6.53131 -8.77936
LeftUpLeg  -71.482 11.5535 -12.2234
LeftLeg  40.807 1.77557 2.03102
LeftFoot  -7.41613 -0.0480586 2.69928
LeftToes  1.06245e-005 4.65855e-005 -8.18504e-006
223
root  39.6133 36.615 -29.8062 -148.169 84.9322 172.125
RightUpLeg  -72.6416 -11.9533 12.5095
RightLeg  38.275 -3.1714 -2.95924
RightFoot  -2.92701 0.489566 -6.90848
RightToes  0.00048216 0.542163 -0.142577
Spine  72.5588 -6.24207 8.02152
Spine1  -0.29757 1.32321 -9.60236
HEad  -40.8137 -7.67187 8.70153
LeftShoulder1  1.22035 -23.9601 4.56041
LeftArm  -86.5824 -60.371 40.2272
LeftForeArm  0.171271 -4.13089 2.57468
LeftHand  -0.25398 0.0180481 5.50724
RightShoulder  1.74126 11.4234 3.70614
RightArm  -82.7782 58.5875 -35.8113
RightForeArm  -22.9412 1.2134 0.713355
RightHand  -1.13141 5.13864 -12.8156
LeftUpLeg  -70.6506 11.8566 -12.4352
LeftLeg  40.3261 1.6579 1.89485
LeftFoot  -6.51751 -0.0966627 3.22449
LeftToes  1.06245e-005 4.65855e-005 -8.18504e-006
224
root  39.2525 36.7418 -29.8676 -150.356 85.0812 171.213
RightUpLeg  -71.3307 -12.4249 12.4082
RightLeg  36.9958 -2.80463 -2.53796
RightFoot  -1.79356 0.593106 -7.23214
RightToes  0.00048216 0.542163 -0.142577
Spine  71.7086 -6.02536 8.20624
Spine1  0.288201 1.52092 -8.97456
HEad  -40.8164 -8.25903 7.87902
LeftShoulder1  1.29275 -24.3069 4.32811
LeftArm  -87.6921 -62.1104 43.3824
LeftForeArm  8.45686 -1.7375 2.02446
LeftHand  -0.25398 0.0180481 5.50724
RightShoulder  1.57062 11.6142 2.25696
RightArm  -82.1229 59.5581 -37.2213
RightForeArm  -20.6769 -1.29803 0.794768
RightHand  -1.59926 4.41059 -19.0613
LeftUpLeg  -69.3609 12.3457 -12.9149
LeftLeg  39.1764 1.40515 1.60962
LeftFoot  -5.69619 -0.156909 3.87783
LeftToes  1.06245e-005 4.65855e-005 -8.18504e-006
225
root  38.8772 36.9004 -29.9551 -153.988 85.2761 169.03
RightUpLeg  -69.6915 -12.9411 12.0664
RightLeg  35.4235 -2.44397 -2.13042
RightFoot  -0.65856 0.690433 -7.41603
RightToes  0.00048216 0.542163 -0.142577
Spine  70.6754 -5.75028 8.29038
Spine1  0.839672 1.58307 -8.15584
HEad  -41.0642 -8.61693 6.83164
LeftShoulder1  1.63921 -24.5356 2.97253
LeftArm  -89.512 -64.5172 45.5717
LeftForeArm  13.1446 0.302622 1.51569
LeftHand  -0.25398 0.0180481 5.50724
RightShoulder  1.5106 11.717 1.73232
RightArm  -81.7259 61.3911 -37.5388
RightForeArm  -15.4517 -3.67612 0.687716
RightHand  -2.33782 5.89818 -24.0521
LeftUpLeg  -67.7124 12.9869 -13.6105
LeftLeg  37.6756 0.999892 1.20328
LeftFoot  -4.87191 -0.225948 4.51563
LeftToes  1.06245e-005 4.65855e-005 -8.18504e-006
226
root  38.4841 37.0853 -30.0789 -158.176 85.5092 166.675
RightUpLeg  -67.5493 -13.4998 11.5209
RightLeg  33.6888 -2.13585 -1.78814
RightFoot  0.579807 0.788865 -7.4997
RightToes  0.00048216 0.542163 -0.142577
Spine  69.6695 -5.56668 8.31781
Spine1  1.25766 1.55624 -7.61312
HEad  -40.8748 -8.75036 6.02954
LeftShoulder1  2.3039 -25.0084 0.451048
LeftArm  -88.7477 -67.1231 43.2729
LeftForeArm  14.4197 0.626224 1.01585
LeftHand  -0.25398 0.0180481 5.50724
RightShoulder  1.7086 12.1133 2.87632
RightArm  -78.9075 63.3274 -33.7337
RightForeArm  -10.7268 -4.25013 0.768037
RightHand  -3.50049 9.27223 -27.6292
LeftUpLeg  -65.5995 13.74 -14.256
LeftLeg  36.0494 0.598412 0.835011
LeftFoot  -4.02223 -0.303161 5.11648
LeftToes  1.06245e-005 4.65855e-005 -8.18504e-006
227
root  38.0783 37.2938 -30.2374 -162.514 85.7701 164.679
RightUpLeg  -64.7609 -14.1312 10.8079
RightLeg  31.8176 -1.73532 -1.41086
RightFoot  2.01084 0.89283 -7.49424
RightToes  0.00048216 0.542163 -0.142577
Spine  68.7723 -5.52414 8.32878
Spine1  1.70726 1.49471 -7.40213
HEad  -40.046 -8.79532 5.38544
LeftShoulder1  3.23695 -25.6409 -2.95249
LeftArm  -81.9818 -69.367 34.5935
LeftForeArm  15.8263 -0.696776 0.214838
LeftHand  -0.25398 0.0180481 5.50724
RightShoulder  2.17294 13.034 5.35211
RightArm  -71.2715 64.2021 -24.5064
RightForeArm  -8.65152 -2.54019 1.36403
RightHand  -4.64709 12.3968 -30.1261
LeftUpLeg  -62.81 14.5079 -14.5938
LeftLeg  34.2486 0.371677 0.632431
LeftFoot  -3.27131 -0.384924 5.7326
LeftToes  1.06245e-005 4.65855e-005 -8.18504e-006
228
root  37.6766 37.5163 -30.4279 -167.688 86.0259 162.18
RightUpLeg  -61.4671 -14.788 9.85321
RightLeg  29.7619 -1.25226 -1.01623
RightFoot  3.41882 0.962852 -7.23965
RightToes  0.00048216 0.542163 -0.142577
Spine  67.814 -5.59182 8.31057
Spine1  2.327 1.34213 -7.28656
HEad  -39.1508 -8.77575 4.48688
LeftShoulder1  4.31142 -26.0833 -6.82685
LeftArm  -68.8884 -70.3935 20.5923
LeftForeArm  19.6216 -2.13229 -0.926397
LeftHand  -0.25398 0.0180481 5.50724
RightShoulder  2.81727 14.1477 8.52295
RightArm  -60.1685 63.6503 -12.737
RightForeArm  -6.92974 -0.477176 2.33969
RightHand  -5.13759 13.6692 -31.0096
LeftUpLeg  -59.4341 15.1503 -14.6389
LeftLeg  32.1928 0.337917 0.582778
LeftFoot  -2.6235 -0.470201 6.36966
LeftToes  1.06245e-005 4.65855e-005 -8.18504e-006
229
root  37.2886 37.7388 -30.6464 -174.998 86.2887 157.609
RightUpLeg  -57.9438 -15.3121 8.57525
RightLeg  27.5352 -0.977666 -0.786274
RightFoot  4.59798 0.969621 -6.68852
RightToes  0.00048216 0.542163 -0.142577
Spine  66.6131 -5.61977 8.12936
Spine1  3.16525 1.09102 -7.04709
HEad  -38.611 -8.58102 3.30624
LeftShoulder1  5.38825 -26.1343 -10.8234
LeftArm  -53.0912 -69.3505 4.70295
LeftForeArm  24.2166 -2.86286 -2.06427
LeftHand  -0.25398 0.0180481 5.50724
RightShoulder  3.47478 14.9866 11.6734
RightArm  -47.9079 61.8304 -1.04625
RightForeArm  -3.89032 0.31075 3.38121
RightHand  -4.83023 13.0136 -30.2213
LeftUpLeg  -55.8153 15.6341 -14.6027
LeftLeg  29.9789 0.477675 0.644694
LeftFoot  -1.90269 -0.560859 6.92434
LeftToes  1.06245e-005 4.65855e-005 -8.18504e-006
230
root  36.9106 37.9558 -30.8791 174.405 86.6195 149.748
RightUpLeg  -54.2814 -15.5567 7.02302
RightLeg  25.2193 -0.958938 -0.719811
RightFoot  5.7687 0.948927 -6.03548
RightToes  0.00048216 0.542163 -0.142577
Spine  65.3025 -5.38521 7.66005
Spine1  4.13729 0.928967 -6.59758
HEad  -38.0914 -8.22991 2.18611
LeftShoulder1  6.43693 -25.9367 -14.8583
LeftArm  -39.2734 -65.9035 -9.17892
LeftForeArm  26.7134 -3.37723 -2.99994
LeftHand  -0.25398 0.0180481 5.50724
RightShoulder  4.05726 15.4842 14.5044
RightArm  -35.8983 58.2292 9.30428
RightForeArm  -2.10365 0.52217 4.66088
RightHand  -4.331 11.7819 -29.1234
LeftUpLeg  -52.1598 16.2125 -14.6671
LeftLeg  27.7368 0.721982 0.754026
LeftFoot  -1.03849 -0.652115 7.29365
LeftToes  1.06245e-005 4.65855e-005 -8.18504e-006
231
root  36.5396 38.1771 -31.1135 160.699 87.0652 138.838
RightUpLeg  -50.3749 -15.5461 5.47075
RightLeg  22.6946 -0.719213 -0.575186
RightFoot  7.17086 0.912629 -5.29358
RightToes  0.00048216 0.542163 -0.142577
Spine  64.0453 -4.83338 7.05277
Spine1  5.05851 1.04041 -6.02772
HEad  -37.1026 -7.90034 1.31327
LeftShoulder1  7.47941 -25.6929 -18.9093
LeftArm  -29.4996 -60.4887 -19.2466
LeftForeArm  26.6088 -3.9187 -3.72835
LeftHand  -0.25398 0.0180481 5.50724
RightShoulder  4.63318 15.7342 17.4642
RightArm  -25.7384 52.6505 16.7281
RightForeArm  -3.98141 1.48445 6.34289
RightHand  -4.1761 11.2145 -29.0389
LeftUpLeg  -48.4892 17.401 -14.8891
LeftLeg  25.4346 0.688553 0.69748
LeftFoot  -0.116103 -0.741323 7.53927
LeftToes  1.06245e-005 4.65855e-005 -8.18504e-006
232
root  36.1891 38.4079 -31.3458 144.43 87.6336 125.349
RightUpLeg  -46.2163 -15.3067 4.06507
RightLeg  19.7477 -0.394942 -0.240971
RightFoot  8.36105 0.776641 -4.13832
RightToes  0.00048216 0.542163 -0.142577
Spine  63.0587 -4.19792 6.47551
Spine1  5.35206 1.23177 -5.44248
HEad  -35.4016 -7.43753 0.508301
LeftShoulder1  8.48181 -25.1538 -23.1706
LeftArm  -22.9792 -53.7451 -25.4317
LeftForeArm  25.5665 -4.02101 -4.42075
LeftHand  -0.25398 0.0180481 5.50724
RightShoulder  5.3018 15.8561 21.004
RightArm  -17.918 46 21.1487
RightForeArm  -6.81185 3.123 8.0199
RightHand  -4.09829 10.925 -29.0001
LeftUpLeg  -44.9515 19.599 -15.2542
LeftLeg  23.0352 -0.176333 0.257564
LeftFoot  0.869287 -0.843347 7.82125
LeftToes  1.06245e-005 4.65855e-005 -8.18504e-006
